<svg xmlns="http://www.w3.org/2000/svg" width="362.965" height="196.746"><g transform="translate(-99.771 -317.562)"><g fill="#00f4cb"><circle cx="303.94" cy="356.205" r="38.643"/><circle cx="384.385" cy="434.376" r="38.643"/><circle cx="345.743" cy="394.848" r="38.643"/><path d="M383.492 473s-22.84 13.5-60.542 13.5-57.653-13.5-57.653-13.5V356.205h77.286z"/><circle cx="434.62" cy="486.511" r="15.975"/><circle cx="456.026" cy="507.598" r="6.71"/></g><linearGradient id="A" gradientUnits="userSpaceOnUse" x1="99.771" y1="333.606" x2="254.628" y2="333.606"><stop offset="0" stop-color="#34faa7"/><stop offset="1" stop-color="#00d3cf"/></linearGradient><path d="M99.77 333.606a14.56 14.56 0 0 0 14.556 14.555h125.745a14.56 14.56 0 0 0 14.557-14.555 14.56 14.56 0 0 0-14.557-14.556H114.327a14.56 14.56 0 0 0-14.556 14.556z" fill="url(#A)"/><linearGradient id="B" gradientUnits="userSpaceOnUse" x1="141.308" y1="375.522" x2="254.628" y2="375.522"><stop offset="0" stop-color="#34faa7"/><stop offset="1" stop-color="#00d3cf"/></linearGradient><path d="M141.308 375.522c0 8.038 6.7 14.555 14.555 14.555h84.21c8.06 0 14.557-6.517 14.557-14.555s-6.923-14.557-14.557-14.557h-84.21c-7.953.001-14.555 6.517-14.555 14.557z" fill="url(#B)"/><linearGradient id="C" gradientUnits="userSpaceOnUse" x1="177.2" y1="417.436" x2="254.628" y2="417.436"><stop offset="0" stop-color="#34faa7"/><stop offset="1" stop-color="#00d3cf"/></linearGradient><path d="M177.2 417.437c.744 12.096 10.536 14.555 14.556 14.555h48.316c7.526 0 14.557-6.516 14.557-14.555s-7.03-14.556-14.557-14.556h-48.316c-8.166 0-14.556 6.517-14.556 14.556z" fill="url(#C)"/><linearGradient id="D" gradientUnits="userSpaceOnUse" x1="225.517" y1="457.482" x2="254.628" y2="457.482"><stop offset="0" stop-color="#34faa7"/><stop offset="1" stop-color="#00d3cf"/></linearGradient><circle cx="240.073" cy="457.482" r="14.556" fill="url(#D)"/><g fill="#fff"><path d="M265.297 360.966h28.895v96.516h-28.895z"/><path d="M265.297 360.966H307.4v56.47h-42.104z"/><circle cx="307.4" cy="389.201" r="28.235"/></g></g></svg>